<?xml version="1.0" standalone="no"?>
<!DOCTYPE svg PUBLIC "-//W3C//DTD SVG 20010904//EN"
 "http://www.w3.org/TR/2001/REC-SVG-20010904/DTD/svg10.dtd">
<svg version="1.0" xmlns="http://www.w3.org/2000/svg"
 width="1075.000000pt" height="1075.000000pt" viewBox="0 0 1075.000000 1075.000000"
 preserveAspectRatio="xMidYMid meet">
<metadata>
Created by potrace 1.11, written by Peter Selinger 2001-2013
</metadata>
<g transform="translate(0.000000,1075.000000) scale(0.100000,-0.100000)"
fill="#000000" stroke="none">
<path d="M5515 10730 c-17 -19 -17 -26 -6 -88 7 -37 15 -78 17 -92 3 -14 11
-56 19 -95 8 -38 16 -83 19 -100 7 -36 25 -136 30 -167 2 -13 7 -34 10 -48 3
-14 8 -43 12 -65 7 -50 14 -93 20 -125 14 -82 34 -200 38 -230 3 -19 7 -44 10
-55 2 -11 7 -42 10 -70 13 -95 17 -120 23 -150 3 -16 7 -41 9 -55 1 -14 10
-74 19 -135 9 -60 18 -130 21 -155 3 -25 7 -56 9 -70 2 -14 7 -47 10 -75 4
-27 9 -61 11 -75 2 -14 6 -52 9 -85 3 -33 7 -67 10 -75 4 -15 9 -56 21 -170 6
-58 9 -89 18 -155 3 -22 8 -69 12 -105 3 -36 7 -81 10 -100 2 -19 7 -60 9 -90
8 -79 15 -149 20 -195 3 -22 8 -74 11 -115 3 -41 7 -95 9 -120 6 -59 13 -146
20 -245 3 -44 7 -100 10 -125 11 -113 25 -327 50 -785 4 -76 16 -353 20 -465
2 -47 7 -188 11 -315 10 -298 11 -1858 1 -2175 -11 -330 -18 -493 -32 -690 -2
-36 -7 -103 -10 -150 -17 -264 -43 -440 -66 -440 -5 0 -9 -6 -9 -13 0 -24 -58
-73 -122 -105 -72 -35 -310 -100 -738 -201 -47 -11 -96 -22 -110 -25 -14 -3
-44 -10 -68 -16 -23 -5 -59 -13 -80 -16 -20 -3 -62 -11 -92 -19 -69 -16 -133
-29 -141 -27 -4 1 -22 -3 -40 -9 -19 -5 -54 -12 -79 -15 -25 -3 -61 -10 -80
-14 -19 -5 -57 -12 -85 -15 -27 -4 -57 -8 -65 -10 -8 -3 -33 -7 -55 -10 -22
-4 -53 -9 -70 -11 -52 -9 -89 -15 -125 -19 -19 -2 -64 -8 -100 -14 -103 -16
-139 -20 -287 -36 -27 -3 -68 -8 -93 -11 -53 -7 -75 -9 -200 -18 -52 -4 -111
-9 -130 -11 -31 -3 -135 -9 -335 -21 -98 -6 -620 -6 -760 0 -119 5 -195 10
-315 21 -25 2 -77 7 -115 10 -39 3 -79 7 -90 9 -11 2 -49 7 -85 11 -36 4 -74
9 -85 11 -11 2 -40 7 -64 10 -24 3 -67 10 -95 15 -28 6 -62 12 -76 14 -41 6
-92 16 -135 25 -22 5 -53 11 -70 14 -16 3 -66 15 -110 26 -44 12 -91 23 -105
26 -32 7 -245 69 -288 84 -35 13 -62 1 -62 -27 0 -24 228 -348 295 -419 5 -6
39 -44 75 -85 245 -279 552 -531 905 -744 108 -65 321 -175 425 -220 47 -20
99 -42 115 -49 17 -8 75 -30 130 -51 55 -20 116 -43 135 -51 75 -28 392 -118
460 -130 14 -3 33 -7 42 -10 33 -10 316 -63 373 -70 22 -3 51 -6 65 -9 14 -2
50 -6 80 -10 30 -3 71 -8 90 -11 223 -33 916 -39 1180 -9 25 3 73 7 108 11 35
3 73 7 85 10 12 2 49 6 82 9 33 3 69 7 80 9 11 2 40 7 65 11 25 4 54 9 65 11
11 3 36 7 55 9 19 2 46 7 60 10 14 3 41 8 60 11 151 24 548 123 760 189 602
188 1195 470 1700 808 166 111 422 302 480 357 9 8 32 28 51 43 99 80 332 304
464 448 51 55 154 175 190 221 6 7 28 36 50 63 23 28 49 61 58 75 9 14 46 66
81 115 36 50 76 108 89 130 13 22 49 81 80 131 31 51 79 136 108 190 28 55 56
108 62 119 6 11 12 22 12 25 1 3 16 36 33 75 18 38 49 110 68 160 19 49 39 99
44 110 32 68 118 362 154 523 17 74 11 112 -16 112 -6 0 -113 -67 -237 -149
-192 -126 -358 -230 -503 -315 -324 -188 -867 -467 -1213 -622 -270 -120 -600
-257 -831 -344 -60 -22 -118 -45 -129 -49 -48 -21 -226 -83 -258 -91 -31 -7
-40 -4 -62 16 -33 31 -34 49 -10 389 4 49 12 201 20 362 8 151 37 202 136 237
78 28 321 124 341 136 10 6 22 10 27 10 5 0 39 14 74 30 36 17 68 30 70 30 3
0 40 16 81 35 42 19 78 35 81 35 3 0 33 13 67 29 35 16 153 70 263 121 191 89
612 298 760 378 39 21 111 60 160 86 50 27 124 68 165 91 84 47 133 76 184
104 19 11 52 31 73 44 21 13 43 26 48 28 15 6 159 92 165 99 3 3 46 29 95 59
90 54 489 316 512 336 6 5 35 26 63 45 100 69 201 144 303 225 55 45 69 72 49
101 -4 6 -35 25 -69 43 -125 63 -338 196 -508 318 -160 115 -494 388 -645 528
-229 212 -381 358 -545 525 -171 175 -260 269 -369 390 -33 36 -84 92 -115
126 -69 75 -166 184 -257 289 -38 44 -73 85 -79 91 -21 22 -256 302 -305 364
-19 24 -40 48 -45 54 -6 6 -73 90 -150 186 -77 96 -142 177 -145 180 -3 3 -24
30 -47 60 -22 30 -69 91 -103 135 -34 44 -114 150 -178 235 -64 85 -120 157
-124 158 -5 2 -8 9 -8 15 0 6 -11 22 -23 36 -13 15 -82 107 -153 206 -70 99
-132 182 -136 183 -5 2 -8 7 -8 12 0 4 -64 99 -142 212 -133 189 -307 449
-531 793 -74 113 -97 141 -118 143 -15 2 -32 -5 -44 -18z"/>
<path d="M4884 10152 c-16 -11 -30 -54 -84 -262 -28 -107 -56 -206 -61 -220
-5 -14 -11 -35 -14 -47 -3 -13 -7 -33 -10 -45 -2 -12 -11 -42 -19 -67 -8 -25
-18 -59 -22 -76 -4 -16 -8 -34 -10 -40 -2 -5 -24 -82 -49 -170 -25 -88 -48
-169 -50 -180 -3 -11 -16 -56 -29 -100 -47 -154 -166 -550 -170 -565 -23 -84
-225 -693 -285 -860 -58 -159 -191 -518 -206 -555 -41 -98 -87 -212 -90 -225
-2 -8 -22 -57 -44 -109 -23 -52 -41 -101 -41 -108 0 -7 -4 -13 -9 -13 -5 0
-12 -13 -16 -30 -4 -16 -20 -57 -36 -90 -16 -33 -29 -63 -29 -65 0 -27 -346
-751 -454 -950 -12 -22 -48 -89 -80 -150 -32 -60 -104 -189 -159 -285 -55 -96
-105 -183 -111 -195 -6 -11 -13 -22 -16 -25 -5 -5 -83 -132 -105 -172 -33 -59
-313 -485 -333 -506 -6 -8 -17 -23 -23 -34 -36 -67 -521 -714 -569 -758 -3 -3
-25 -30 -50 -60 -75 -92 -83 -102 -129 -154 -111 -129 -161 -185 -296 -331
-49 -53 -105 -113 -122 -132 -34 -37 -42 -73 -21 -91 14 -10 48 -19 113 -27
22 -3 51 -7 65 -9 31 -5 135 -18 175 -21 17 -2 62 -6 100 -10 382 -39 1003
-34 1426 10 24 3 71 7 104 10 33 3 77 8 98 10 20 3 54 7 75 10 68 9 327 46
352 51 32 6 72 13 109 18 16 2 64 11 108 20 43 9 89 18 103 21 165 31 532 117
580 135 14 5 36 11 50 14 32 5 246 69 322 95 31 11 70 30 87 42 35 26 78 87
85 121 13 63 26 129 31 158 2 14 6 39 9 55 3 17 7 44 10 60 2 17 7 48 11 70 8
55 14 101 20 160 3 28 7 60 9 72 3 12 7 48 11 80 3 32 8 74 10 93 3 19 7 67
10 105 3 39 7 86 10 105 4 30 10 116 20 265 4 62 17 322 20 395 3 80 16 726
16 795 0 139 -12 777 -16 890 -11 323 -23 588 -30 695 -3 47 -7 126 -10 175
-10 188 -15 292 -20 350 -2 33 -7 101 -10 150 -4 50 -8 110 -10 135 -2 25 -7
88 -10 140 -4 52 -8 113 -10 135 -3 22 -7 74 -9 115 -3 41 -8 98 -11 125 -5
49 -11 118 -20 225 -7 81 -14 169 -20 225 -3 28 -7 77 -10 110 -8 80 -13 130
-19 190 -3 28 -8 75 -11 105 -3 30 -7 76 -10 103 -3 26 -7 68 -10 95 -3 26 -7
69 -10 95 -3 27 -8 67 -10 91 -5 59 -20 186 -30 256 -2 14 -6 56 -10 93 -3 37
-8 76 -10 85 -1 9 -6 49 -10 87 -8 88 -40 126 -81 97z"/>
</g>
</svg>
